<svg id="Calque_1" data-name="Calque 1" xmlns="http://www.w3.org/2000/svg" viewBox="0 0 765.35 215.43"><path d="M91.21,72.08h14.71l23.58,73H99l-9.59-11L85.05,145H70.87Zm-5.32-15.2L91,46.77l24.73,11.46-4.07,7.19ZM91.1,125.2h12.42l-5.84-21.35Z"/><path d="M175.23,98.08l16.28,10.53v37.08c-30.78,0-44.76-12.19-44.76-38.86,0-33,35.57-34.58,45.69-34.58l.11,16.35-17.32,6.57Z"/><path d="M221.4,73.76c22.93-6.34,38.43.4,45.86,27.21,4.62,16.67,1.76,37.24-20.15,43.29s-41.19-4.08-47.47-26.77S205.41,78.17,221.4,73.76ZM229.85,47H240l10.74,18.23H236.53l-5.22-6.35-3.76,6.25H216.18Zm4,67.82a10,10,0,1,0-10-10A9.88,9.88,0,0,0,233.81,114.8Z"/><path d="M280.67,97.41l-8.45.58V72.11h48.72V94.68l-10.43.83V145H280.67Z"/><path d="M373.26,100.69l-16.38,15v1.15h15.44V145H327.46V72.15h45.39V84.44H357.72v.94l15.54,14.06ZM334.35,58.23l24.73-11.46,5.11,10.11-25.77,8.54Z"/><path d="M405,72c10.95,0,49.66,1.57,49.66,34.59,0,26.67-15.24,38.86-48.62,38.86Zm18,49.28s13.57-.21,13.57-10.94c0-14-12.73-13.33-13.25-13.33Z"/><path d="M506.3,117.67l-15.54,14.07v.93h15.13V145H460.51V72.11h44.86v28.17H489.93v1.14l16.37,15Z"/><path d="M539.75,86.28H531.3V72.11H580V85.76l-10.43.83V145H539.75Z"/><path d="M613,71.1c23.79,0,36.94,10.62,36.94,38.44,0,17.29-8.25,36.35-31,36.35s-38.6-14.89-38.6-38.44S596.45,71.1,613,71.1ZM615.54,119a10,10,0,1,0-10-10A9.88,9.88,0,0,0,615.54,119Z"/><path d="M657.56,72.15h36.93V145H657.56Z"/></svg>